<svg xmlns="http://www.w3.org/2000/svg" viewBox="0 0 500 500"><g id="freepik--background-simple--inject-59"><path d="M438.56,430.13A58,58,0,0,0,452,418.36c28.63-34.66,28.33-83.56,26.36-125.7-2.32-49.74-11.12-99.51-36.56-143.38C417.32,107,380.37,71.07,334.13,51.85A203.51,203.51,0,0,0,294.43,40a159.51,159.51,0,0,0-75.76,3.55,228.86,228.86,0,0,0-27.38,10.3C130.45,81,122,136.88,98.34,192.81,81.59,232.41,42.2,258.28,25.5,297.93,6.79,342.33,36.77,390.85,75,414.68a151.81,151.81,0,0,0,27.85,13.53c90.92,33.46,193.46,43.72,288.1,19.37C406.9,443.48,424.55,439.13,438.56,430.13Z" style="fill:#0099FF"></path><path d="M438.56,430.13A58,58,0,0,0,452,418.36c28.63-34.66,28.33-83.56,26.36-125.7-2.32-49.74-11.12-99.51-36.56-143.38C417.32,107,380.37,71.07,334.13,51.85A203.51,203.51,0,0,0,294.43,40a159.51,159.51,0,0,0-75.76,3.55,228.86,228.86,0,0,0-27.38,10.3C130.45,81,122,136.88,98.34,192.81,81.59,232.41,42.2,258.28,25.5,297.93,6.79,342.33,36.77,390.85,75,414.68a151.81,151.81,0,0,0,27.85,13.53c90.92,33.46,193.46,43.72,288.1,19.37C406.9,443.48,424.55,439.13,438.56,430.13Z" style="fill:#fff;opacity:0.7000000000000001"></path></g><g id="freepik--Floor--inject-59"><line x1="31.18" y1="453.07" x2="469.38" y2="453.07" style="fill:none;stroke:#263238;stroke-linecap:round;stroke-linejoin:round"></line></g><g id="freepik--Device--inject-59"><rect x="-17.24" y="172.31" width="363.18" height="187.31" rx="20.5" transform="translate(-101.61 430.31) rotate(-90)" style="fill:#fff"></rect><path d="M258,103.94a19.47,19.47,0,0,0-4.4-12.35c-9.36,4.54-22.76,14.17-40.11,34.36C176.2,169.33,164.78,274.36,120.63,320c-18.89,19.55-36.25,31.56-49.94,38.91v69a19.58,19.58,0,0,0,19.58,19.58H227.59q1.35-1.67,2.65-3.46C240.54,429.82,250,417.85,258,408.3Z" style="fill:#d6d6d6"></path><path d="M70.69,103.94v83.77c15.25-6.81,33.69-19.73,46.9-44.26C131,118.6,148.19,98.36,162,84.37H90.27A19.58,19.58,0,0,0,70.69,103.94Z" style="fill:#d6d6d6"></path><path d="M85.17,92.23c0,2.22-2.5,3-2.51,4.71v.12h2.42v.74H81.85v-.63c0-2.38,2.5-2.84,2.5-4.91,0-.76-.26-1.16-.87-1.16s-.86.43-.86,1.08v.66h-.77v-.6c0-1.13.52-1.88,1.65-1.88S85.17,91.1,85.17,92.23Z" style="fill:#263238"></path><path d="M89.2,92.21v.19a1.48,1.48,0,0,1-.89,1.52,1.46,1.46,0,0,1,.89,1.53V96c0,1.13-.53,1.87-1.66,1.87s-1.66-.74-1.66-1.87v-.5h.77v.56c0,.66.28,1.06.87,1.06s.86-.39.86-1.14v-.57c0-.72-.31-1.07-.93-1.09H87v-.74h.48a.88.88,0,0,0,.89-1v-.33c0-.76-.26-1.15-.86-1.15s-.87.41-.87,1.07v.38h-.77v-.34c0-1.12.53-1.85,1.66-1.85S89.2,91.09,89.2,92.21Z" style="fill:#263238"></path><path d="M90.79,92.77v1H90v-1Zm0,4v1H90v-1Z" style="fill:#263238"></path><path d="M92.45,93.44a1.19,1.19,0,0,1,1.1-.61c.94,0,1.36.69,1.36,1.74V96c0,1.13-.53,1.87-1.66,1.87S91.6,97.14,91.6,96v-.49h.77v.55c0,.66.27,1.06.86,1.06s.86-.4.86-1.06V94.64c0-.67-.27-1.07-.86-1.07a.79.79,0,0,0-.83.79v.17h-.77l.2-4.09h2.91v.73H92.57Z" style="fill:#263238"></path><path d="M99,92.2v.14h-.77v-.19c0-.66-.27-1.05-.87-1.05s-.9.4-.9,1.19v1.65a1.19,1.19,0,0,1,1.19-.79c1,0,1.37.69,1.37,1.75V96c0,1.13-.56,1.87-1.68,1.87s-1.7-.74-1.7-1.87V92.26c0-1.17.53-1.9,1.7-1.9S99,91.08,99,92.2ZM96.47,95v1.11c0,.66.28,1.06.88,1.06s.87-.4.87-1.06V95c0-.66-.28-1.06-.87-1.06S96.47,94.3,96.47,95Z" style="fill:#263238"></path><rect x="211.93" y="92.53" width="2.08" height="5.2" style="fill:#263238"></rect><rect x="214.7" y="91.49" width="2.08" height="6.24" style="fill:#263238"></rect><rect x="217.48" y="90.75" width="2.08" height="6.98" style="fill:#263238"></rect><rect x="220.25" y="89.46" width="2.08" height="8.27" style="fill:#263238"></rect><path d="M248.07,97.59H235.59V90h12.48Zm-11.79-.7h11.1V90.65h-11.1Z" style="fill:#263238"></path><rect x="237.32" y="91.41" width="6.59" height="4.73" style="fill:#263238"></rect><rect x="247.64" y="92.87" width="1.57" height="1.8" style="fill:#263238"></rect><path d="M231,95.93a.44.44,0,0,1-.24-.07c-2.54-1.51-4.21-.11-4.28,0a.47.47,0,0,1-.62-.7c.09-.08,2.24-1.92,5.38,0a.46.46,0,0,1,.16.64A.45.45,0,0,1,231,95.93Z" style="fill:#263238"></path><path d="M232,94.36a.44.44,0,0,1-.24-.07c-3.67-2.18-6.14-.07-6.16-.05a.47.47,0,1,1-.62-.7s3-2.57,7.26-.05a.46.46,0,0,1,.16.64A.45.45,0,0,1,232,94.36Z" style="fill:#263238"></path><path d="M232.81,92.55a.48.48,0,0,1-.24-.07c-4.65-2.77-7.75-.16-7.88,0a.46.46,0,0,1-.65,0,.47.47,0,0,1,0-.66s3.71-3.18,9,0a.46.46,0,0,1,.17.64A.5.5,0,0,1,232.81,92.55Z" style="fill:#263238"></path><path d="M229.61,96.71a1.17,1.17,0,1,1-1.17-1.17A1.17,1.17,0,0,1,229.61,96.71Z" style="fill:#263238"></path><path d="M263,97.28v11.16h3.46v31.7H263v7.2h3.46v31.71H263v7.2h3.46V218H263V434.63a20.65,20.65,0,0,1-20.65,20.65H86.3a20.64,20.64,0,0,1-20.64-20.65V165.5H63.18V133.8h2.48V97.28A20.64,20.64,0,0,1,86.3,76.64H242.39A20.65,20.65,0,0,1,263,97.28Zm-54-12.91L203,93.43a9.84,9.84,0,0,1-8.17,4.35H133.89a9.83,9.83,0,0,1-8.16-4.35l-6.1-9.06H91.34A20.65,20.65,0,0,0,70.69,105v321.9a20.65,20.65,0,0,0,20.65,20.64h146A20.64,20.64,0,0,0,258,426.91V105a20.64,20.64,0,0,0-20.64-20.64Z" style="fill:#263238"></path></g><g id="freepik--Cables--inject-59"><path d="M241.8,186h1.43a5.25,5.25,0,0,1,5.25,5.25V291.57A29.53,29.53,0,0,0,278,321.1h0a29.54,29.54,0,0,0,29.54-29.53V254.73" style="fill:none;stroke:#263238;stroke-linecap:round;stroke-linejoin:round"></path><line x1="237.42" y1="185.98" x2="241.8" y2="185.98" style="fill:none;stroke:#263238;stroke-linecap:round;stroke-linejoin:round;stroke-width:3px"></line><path d="M133.06,247.51a3.07,3.07,0,0,1,3.07,3.06v41.1a84.09,84.09,0,0,0,84.09,84.1h0a79.93,79.93,0,0,0,79.93-79.93V255" style="fill:none;stroke:#263238;stroke-linecap:round;stroke-linejoin:round"></path><line x1="128.23" y1="247.51" x2="133.06" y2="247.51" style="fill:none;stroke:#263238;stroke-linecap:round;stroke-linejoin:round;stroke-width:3px"></line><path d="M244.36,312a5.32,5.32,0,0,1,5.32,5.31v48a33,33,0,0,0,33,33h0a33,33,0,0,0,33-33V256.12" style="fill:none;stroke:#263238;stroke-linecap:round;stroke-linejoin:round"></path><line x1="238.13" y1="312.01" x2="244.36" y2="312.01" style="fill:none;stroke:#263238;stroke-linecap:round;stroke-linejoin:round;stroke-width:3px"></line></g><g id="freepik--Apps--inject-59"><rect x="194.63" y="164.24" width="43.19" height="43.19" rx="5.14" style="fill:#0099FF;stroke:#263238;stroke-linecap:round;stroke-linejoin:round"></rect><path d="M230.15,184.88v-3.27l-3.3-.56a11,11,0,0,0-1.55-3.76l2-2.75-2.32-2.32-2.74,2a10.86,10.86,0,0,0-3.74-1.55l-.56-3.36h-3.27l-.56,3.36a10.7,10.7,0,0,0-3.7,1.53l-2.81-2-2.31,2.32,2,2.79a10.7,10.7,0,0,0-1.54,3.68l-3.41.57v3.27l3.39.57A10.65,10.65,0,0,0,207.2,189l-2,2.82,2.31,2.31,2.79-2a10.65,10.65,0,0,0,3.69,1.57l.56,3.37h3.27l.56-3.34a10.48,10.48,0,0,0,3.75-1.52l2.76,2,2.32-2.31-1.95-2.73a10.74,10.74,0,0,0,1.58-3.76Zm-13.88,6.34a8,8,0,1,1,8-8A8,8,0,0,1,216.27,191.22Z" style="fill:#fff;stroke:#263238;stroke-linecap:round;stroke-linejoin:round"></path><rect x="202.21" y="200.49" width="26.97" height="2.21" style="fill:#fff;stroke:#263238;stroke-linecap:round;stroke-linejoin:round"></rect><rect x="202.21" y="200.49" width="13.49" height="2.21" style="fill:#263238;stroke:#263238;stroke-linecap:round;stroke-linejoin:round"></rect><rect x="139.82" y="164.27" width="43.01" height="43.01" rx="5.36" style="fill:#fff;stroke:#263238;stroke-linecap:round;stroke-linejoin:round"></rect><circle cx="161.32" cy="185.78" r="14.82" transform="translate(-38.15 41.74) rotate(-13.2)" style="fill:#263238;stroke:#263238;stroke-linecap:round;stroke-linejoin:round"></circle><polyline points="156.65 191.84 161.32 185.78 161.32 174.92" style="fill:none;stroke:#fff;stroke-linecap:round;stroke-linejoin:round"></polyline><rect x="84.92" y="164.27" width="43.01" height="43.01" rx="5.36" style="fill:#fff;stroke:#263238;stroke-linecap:round;stroke-linejoin:round"></rect><polyline points="101.75 191.84 106.43 185.78 106.43 174.92" style="fill:none;stroke:#fff;stroke-linecap:round;stroke-linejoin:round"></polyline><polygon points="118.47 184.81 98.94 173.53 98.94 196.08 118.47 184.81" style="fill:#263238;stroke:#263238;stroke-linecap:round;stroke-linejoin:round"></polygon><rect x="194.63" y="227.46" width="43.19" height="43.19" rx="5.14" style="fill:#fff;stroke:#263238;stroke-linecap:round;stroke-linejoin:round"></rect><path d="M215.6,236.24c-7.68,0-13.91,5-13.91,11.12,0,4,2.61,7.45,6.52,9.42l-2.35,5.88,7.44-4.34a17.3,17.3,0,0,0,2.3.16c7.67,0,13.9-5,13.9-11.12S223.27,236.24,215.6,236.24Z" style="fill:#263238;stroke:#263238;stroke-linecap:round;stroke-linejoin:round"></path><rect x="194.63" y="290.68" width="43.19" height="43.19" rx="5.14" style="fill:#0099FF;stroke:#263238;stroke-linecap:round;stroke-linejoin:round"></rect><path d="M230.15,311.32v-3.27l-3.3-.55a11,11,0,0,0-1.55-3.77l2-2.75-2.32-2.31-2.74,2a10.68,10.68,0,0,0-3.74-1.56l-.56-3.36h-3.27l-.56,3.36a10.72,10.72,0,0,0-3.7,1.54l-2.81-2-2.31,2.31,2,2.8a10.57,10.57,0,0,0-1.54,3.67l-3.41.57v3.27l3.39.57a10.49,10.49,0,0,0,1.51,3.68l-2,2.82,2.31,2.32,2.79-2a10.82,10.82,0,0,0,3.69,1.56l.56,3.38h3.27l.56-3.34a10.85,10.85,0,0,0,3.75-1.52l2.76,2,2.32-2.32-1.95-2.73a10.77,10.77,0,0,0,1.58-3.75Zm-13.88,6.34a8,8,0,1,1,8-8A8,8,0,0,1,216.27,317.66Z" style="fill:#fff;stroke:#263238;stroke-linecap:round;stroke-linejoin:round"></path><rect x="202.21" y="326.93" width="26.97" height="2.21" style="fill:#fff;stroke:#263238;stroke-linecap:round;stroke-linejoin:round"></rect><rect x="202.21" y="326.93" width="4.46" height="2.21" style="fill:#263238;stroke:#263238;stroke-linecap:round;stroke-linejoin:round"></rect><rect x="84.92" y="227.5" width="43.01" height="43.01" rx="5.36" style="fill:#0099FF;stroke:#263238;stroke-linecap:round;stroke-linejoin:round"></rect><path d="M120.67,248.1v-3.27l-3.31-.55a10.63,10.63,0,0,0-1.55-3.77l2-2.75-2.31-2.31-2.74,2a10.86,10.86,0,0,0-3.74-1.55l-.56-3.36h-3.27l-.56,3.36a10.87,10.87,0,0,0-3.71,1.53l-2.8-2-2.31,2.32,2,2.8a10.75,10.75,0,0,0-1.53,3.67l-3.42.57V248l3.39.57a10.76,10.76,0,0,0,1.51,3.68l-2,2.82L98,257.39l2.78-2a10.9,10.9,0,0,0,3.69,1.56l.57,3.38h3.27l.56-3.34a10.76,10.76,0,0,0,3.75-1.53l2.76,2,2.31-2.31-1.95-2.73a10.56,10.56,0,0,0,1.58-3.76Zm-13.89,6.34a8,8,0,1,1,8-8A8,8,0,0,1,106.78,254.44Z" style="fill:#fff;stroke:#263238;stroke-linecap:round;stroke-linejoin:round"></path><rect x="92.73" y="263.71" width="26.97" height="2.21" style="fill:#fff;stroke:#263238;stroke-linecap:round;stroke-linejoin:round"></rect><rect x="92.73" y="263.71" width="24.38" height="2.21" style="fill:#263238;stroke:#263238;stroke-linecap:round;stroke-linejoin:round"></rect><rect x="84.92" y="290.72" width="43.01" height="43.01" rx="5.36" style="fill:#fff;stroke:#263238;stroke-linecap:round;stroke-linejoin:round"></rect><polyline points="101.75 318.29 106.43 312.22 106.43 301.36" style="fill:none;stroke:#fff;stroke-linecap:round;stroke-linejoin:round"></polyline><rect x="91.93" y="302.92" width="28.99" height="18.6" style="fill:#263238;stroke:#263238;stroke-linecap:round;stroke-linejoin:round"></rect><polyline points="91.93 302.92 106.19 315 120.72 303.09" style="fill:none;stroke:#fff;stroke-linecap:round;stroke-linejoin:round"></polyline><line x1="91.93" y1="321.52" x2="102.32" y2="312.1" style="fill:none;stroke:#fff;stroke-linecap:round;stroke-linejoin:round"></line><line x1="120.92" y1="321.52" x2="110.05" y2="312.1" style="fill:none;stroke:#fff;stroke-linecap:round;stroke-linejoin:round"></line></g><g id="freepik--Character--inject-59"><path d="M413.35,183.28c-6.05-5.09-4.88-13.2-4.88-13.2s-24.72,22.44-26,29.76,17.19,33.74,20,37.88a4.09,4.09,0,0,0,1.36,1.22,17.39,17.39,0,0,0-1.28,6.89c.07,8.12,9.24,5.24,12.94,2.78a6.8,6.8,0,0,0,2.78-6.79s-4.63,1.85-4.63-.3S418,236,418,236l-.11-.08a15.36,15.36,0,0,0,2.45-2.31c4.77-5.73-3.19-12.1-4.78-15.6s1.27-6.68,7-11.46S419.4,188.38,413.35,183.28Z" style="fill:#263238;stroke:#263238;stroke-linecap:round;stroke-linejoin:round"></path><path d="M322.67,232.57a55.63,55.63,0,0,1-.24,8.36,11.61,11.61,0,0,0,3.46,8.95c1.32,1,7.88,3.1,7.88,3.1l1.08-5.73-1-2.38,1.31-8.72a27.67,27.67,0,0,0-2.14-4.65c-1.2-1.91-4.42-3.94-4.66-4.3s-4.18.48-4.54.48a15.21,15.21,0,0,0-2.14.71Z" style="fill:#fff;stroke:#263238;stroke-linecap:round;stroke-linejoin:round"></path><path d="M320.64,226.74s-2.05.17-2.3,1,.61,5.51,1.12,5.94,1.9,0,1.91-1.9S321.18,227.49,320.64,226.74Z" style="fill:#fff;stroke:#263238;stroke-linecap:round;stroke-linejoin:round"></path><path d="M323,226.18s-2.24,0-2.58.86.17,6,.69,6.53,2.06.17,2.23-1.89S323.48,227,323,226.18Z" style="fill:#fff;stroke:#263238;stroke-linecap:round;stroke-linejoin:round"></path><path d="M325.35,225.31s-2.52,0-2.91,1,.2,6.79.78,7.37,2.32.19,2.52-2.13S325.93,226.28,325.35,225.31Z" style="fill:#fff;stroke:#263238;stroke-linecap:round;stroke-linejoin:round"></path><path d="M327.64,225.33s-2.52,0-2.91,1,.19,6.78.77,7.36,2.33.2,2.52-2.13S328.22,226.3,327.64,225.33Z" style="fill:#fff;stroke:#263238;stroke-linecap:round;stroke-linejoin:round"></path><path d="M334,243s1-5,1.17-7.76-2.91-6-3.69-7-.77-4.45-2.13-4.45-1.74,1.55-1.74,1.55-.78,2.52.58,3.87a25.16,25.16,0,0,1,2.71,3.49s-4.07,7.76-4.07,9.89,3.88,4.65,3.88,4.65" style="fill:#fff;stroke:#263238;stroke-linecap:round;stroke-linejoin:round"></path><polygon points="334.61 246.78 333.53 256.09 359.08 264.44 358.84 250.48 334.61 246.78" style="fill:#0099FF;stroke:#263238;stroke-linecap:round;stroke-linejoin:round"></polygon><path d="M376.75,202.85s-14.23,4.26-15.19,8.71-3.91,18-3.91,18-3.51,9.23-3.19,14,3.19,14.33,1.59,20.69-7,25.47-8.27,31.84-1.91,10.18-1.91,10.18l5.09,1,7,.95s2.87-19.1,5.1-35.65-3.5-28,1.91-38.84,18.46-21.64,17.51-26.1S376.75,202.85,376.75,202.85Z" style="fill:#0099FF;stroke:#263238;stroke-linecap:round;stroke-linejoin:round"></path><path d="M351,294.84s-1.91,23.24,1.91,40.43a233.08,233.08,0,0,0,8.28,29s4.45,28,7.64,37.88a71.13,71.13,0,0,1,3.5,27.06c-.64,7.63-6.05,17.5-8.6,19.41s-7.64,6.37-1.27,8,14.59-2.07,18.46-2.23c7.64-.32,8.6-5.41,8.6-10.18s-4.46-21-3.18-29.29,1.59-35.65.31-43-1.91-14-1.91-14l-.95-59.53-31.52-4.45Z" style="fill:#263238;stroke:#263238;stroke-linecap:round;stroke-linejoin:round"></path><path d="M386.1,419.84c-7.35,3.18-11.47,2.6-13.74,1.29a57.94,57.94,0,0,1-.07,8.05c-.64,7.63-6.05,17.5-8.6,19.41s-7.64,6.37-1.27,8,14.59-2.07,18.46-2.23c7.64-.32,8.6-5.41,8.6-10.18C389.48,440.2,386.45,428.47,386.1,419.84Z" style="fill:#fff;stroke:#263238;stroke-linecap:round;stroke-linejoin:round"></path><path d="M389.45,443.39a.76.76,0,0,1,0-.15c0-.27-.05-.56-.09-.86a1.36,1.36,0,0,0,0-.2q-.06-.44-.12-.93s0-.07,0-.11c-.05-.34-.1-.71-.16-1.08l-.06-.35c-.06-.34-.12-.7-.18-1.07,0-.2-.07-.4-.1-.6l0-.13c-.44.45-.91.92-1.41,1.45-5.09,5.41-12.1,11.46-19.42,11.46-3.49,0-4.37-1-4.34-2.07-2.6,2-7.27,6.25-1.07,7.8,6.37,1.59,14.59-2.07,18.46-2.23,7.64-.32,8.6-5.41,8.6-10.18Q389.48,443.8,389.45,443.39Z" style="fill:#0099FF;stroke:#263238;stroke-linecap:round;stroke-linejoin:round"></path><path d="M383.11,449.87c-6.05,4.77-12.41,5.41-17.82,5.41-4.19,0-5.32-1.71-5.62-2.49-.73,1.52-.36,3,2.75,3.76,6.37,1.59,14.59-2.07,18.46-2.23,7.2-.3,8.46-4.83,8.59-9.35C387.94,446.11,385.81,447.73,383.11,449.87Z" style="fill:#fff;stroke:#263238;stroke-linecap:round;stroke-linejoin:round"></path><path d="M371.33,330.18s3.19,40.42,5.73,51.25,8,48.38,8,53.48-3.5,12.41-5.41,15.59-7,3.82-7,6.69,10.18,2.86,12.09,3.18,15-3.18,15.28-4.77.32-8.28.32-8.28a27.65,27.65,0,0,0,0-5.41c-.32-2.23-4.14-8.91-4.14-8.91s3.51-31.2,4.46-36.29.64-15.6.32-20.38S397.76,362,397.76,362l6.36-50.61-.63-16.24s-8.92,1-18.79,1H367.83l.64,12.09" style="fill:#263238;stroke:#263238;stroke-linecap:round;stroke-linejoin:round"></path><path d="M400,455.6c.32-1.6.32-8.28.32-8.28a27.65,27.65,0,0,0,0-5.41c-.32-2.23-4.14-8.91-4.14-8.91s.53-4.65,1.22-10.65a16.22,16.22,0,0,1-13.83-1c.88,6.61,1.47,11.83,1.47,13.51,0,5.09-3.5,12.41-5.41,15.59s-7,3.82-7,6.69,10.18,2.86,12.09,3.18S399.67,457.19,400,455.6Z" style="fill:#fff;stroke:#263238;stroke-linecap:round;stroke-linejoin:round"></path><path d="M400,455.6c.32-1.6.32-8.28.32-8.28a27.65,27.65,0,0,0,0-5.41c-.18-1.29-1.53-4.06-2.64-6.17-.08.15-.15.28-.22.44-1.91,3.82-10.09,13.76-13.91,16s-4.87-.39-4.87-.39h-.1c-2.28,2.14-5.73,3-5.95,5.41-.42,4.54,12,4.24,13.85,3.65S399.67,457.19,400,455.6Z" style="fill:#0099FF;stroke:#263238;stroke-linecap:round;stroke-linejoin:round"></path><path d="M400,455.6a55.81,55.81,0,0,0,.31-6.28,40.14,40.14,0,0,1-21.86,8.46c-3.67.23-5.17-1.4-5.43-1.73a2.67,2.67,0,0,0-.39,1.14c-.42,4.54,12,4.24,13.85,3.65S399.67,457.19,400,455.6Z" style="fill:#fff;stroke:#263238;stroke-linecap:round;stroke-linejoin:round"></path><path d="M374.84,204.44s-12.42,24.19-15.28,30.88-1.6,17.5-1.6,21.32-7,38.2-7,38.2,6.37,6.69,23.24,6.05,27.06-4.77,27.06-4.77-3.82-31.52-3.82-38.2,8.27-35.34,7.32-43-12.42-7-15.28-7.64S374.84,204.44,374.84,204.44Z" style="fill:#fff;stroke:#263238;stroke-linecap:round;stroke-linejoin:round"></path><path d="M360.59,159.28S357,171.49,358.3,173a22.35,22.35,0,0,1,2.54,5.09s-3.81,7.38-2.8,8.4a10.57,10.57,0,0,0,3.31,1.78s2.29,11,4.33,11.46,14-2.8,14-2.8,7.13-6.37,4.33-17.82-14-19.6-16-20.62S360.59,159.28,360.59,159.28Z" style="fill:#fff;stroke:#263238;stroke-linecap:round;stroke-linejoin:round"></path><path d="M367,177.6v2.8s3.16.2,4.69-.82" style="fill:none;stroke:#263238;stroke-linecap:round;stroke-linejoin:round"></path><path d="M365.89,176.31a5.69,5.69,0,0,1,5.52.11" style="fill:none;stroke:#263238;stroke-linecap:round;stroke-linejoin:round"></path><path d="M363.07,176.31s1.13-2.36,5.52-2.36,6.88,1.35,7.21,2.14a1.35,1.35,0,0,1-.11,1.35s0,4.62-1.24,5.86-5.74,2.48-8,1.46-3.49-5.41-3.49-6.42S363.07,176.31,363.07,176.31Z" style="fill:none;stroke:#263238;stroke-linecap:round;stroke-linejoin:round"></path><line x1="375.8" y1="176.09" x2="377.61" y2="176.09" style="fill:none;stroke:#263238;stroke-linecap:round;stroke-linejoin:round"></line><path d="M363.07,176.31s-1.91-1.58-2.7.34" style="fill:none;stroke:#263238;stroke-linecap:round;stroke-linejoin:round"></path><path d="M359.58,176.31a14.21,14.21,0,0,0-3.49-.45c-1.92,0-2.48.79-2.37,1.13a12.36,12.36,0,0,1,.68,3.27c0,1.23.11,3.15,1.24,3.71a7.63,7.63,0,0,0,2.48.68" style="fill:none;stroke:#263238;stroke-linecap:round;stroke-linejoin:round"></path><path d="M385.34,206.35s-8.59,21.64-10.82,33.74-1.28,74.81-1.28,74.81a37.39,37.39,0,0,0,18.47,3.5c10.82-.64,22-7.64,22-7.64s-2.55-18.46-6.68-31.52-5.73-19.09-5.73-19.09,8.27-42.34,7.64-46.8S385.34,206.35,385.34,206.35Z" style="fill:#0099FF;stroke:#263238;stroke-linecap:round;stroke-linejoin:round"></path><path d="M369,147.31s-12.47,3.57-12.47,5.6-.51,4.84,7.89,10.69,14.51,11.2,15,18.33-6.62,26-8.15,32.07-.76,15,4.07,16.29,3.31.51,2.8-2.29,2.29-14.51,10.69-18.32,17.51-9.94,19.35-21.39c1.92-11.94,1.15-29.22-11.2-38.69S369,147.31,369,147.31Z" style="fill:#263238;stroke:#263238;stroke-linecap:round;stroke-linejoin:round"></path><path d="M392,229.9l-3.19,29.29-1.91.64v1.59l-1.91.95-.95,1.28-44.25-4.14s-10.19-1.27-12.1-1.27-9.23-1-9.23-1,1,2.87,2.55,3.18,9.87,3.19,9.87,3.19,5.41,2.86,8.91,2.86,8.91.32,8.91.32,23.24,6.37,30.56,7.64,13.37,4.14,15.92,3.18a11.21,11.21,0,0,0,6.68-7c1-3.5,5.1-25.15,5.1-25.15s5.09-22,5.09-27.37-7.32-8.28-14-4.78" style="fill:#0099FF;stroke:#263238;stroke-linecap:round;stroke-linejoin:round"></path><path d="M385.09,275.79l-3.39-12.37-41.88-3.91s-10.19-1.27-12.1-1.27-9.23-1-9.23-1,1,2.87,2.55,3.18,9.87,3.19,9.87,3.19,5.41,2.86,8.91,2.86,8.91.32,8.91.32,23.24,6.37,30.56,7.64C381.34,274.83,383.29,275.31,385.09,275.79Z" style="fill:#fff;stroke:#263238;stroke-linecap:round;stroke-linejoin:round"></path><line x1="389.76" y1="272.05" x2="390.75" y2="273.51" style="fill:none;stroke:#263238;stroke-linecap:round;stroke-linejoin:round"></line><line x1="384.07" y1="263.65" x2="388.55" y2="270.26" style="fill:none;stroke:#263238;stroke-linecap:round;stroke-linejoin:round"></line><line x1="386.93" y1="261.42" x2="393.3" y2="265.88" style="fill:none;stroke:#263238;stroke-linecap:round;stroke-linejoin:round"></line><path d="M320.43,257.75a2.51,2.51,0,0,0,2.07,1.77c1.62.14,6.33,2.79,6.77,2.79" style="fill:none;stroke:#263238;stroke-linecap:round;stroke-linejoin:round"></path><path d="M325.74,258.19a7.76,7.76,0,0,0,2.79,1.62,56.17,56.17,0,0,1,5.6,2.21" style="fill:none;stroke:#263238;stroke-linecap:round;stroke-linejoin:round"></path><path d="M348.12,260.84s-6.58-2.22-7.12-2.07a16.48,16.48,0,0,1-4.66-.14c-2.21-.29-3.54,2.21-1.77,2.95a8,8,0,0,0,3.83.44c.59,0,2.35.59,2.8.59" style="fill:#fff;stroke:#263238;stroke-linecap:round;stroke-linejoin:round"></path><polygon points="296.43 254.02 358.46 261 358.26 258.86 296.04 252.27 296.43 254.02" style="fill:#fff;stroke:#263238;stroke-linecap:round;stroke-linejoin:round"></polygon><polygon points="296.04 252.27 283.82 220.09 318.72 223 330.16 256.15 296.04 252.27" style="fill:#fff;stroke:#263238;stroke-linecap:round;stroke-linejoin:round"></polygon><polygon points="330.16 256.15 330.16 257.81 358.46 261 358.26 258.86 330.13 255.88 330.16 256.15" style="fill:#263238;stroke:#263238;stroke-linecap:round;stroke-linejoin:round"></polygon></g></svg>